<svg preserveAspectRatio="none" width="100%" height="100%" overflow="visible" style="display: block;" viewBox="0 0 1787.77 246.752" fill="none" xmlns="http://www.w3.org/2000/svg">
<g id="reshape possible">
<path id="Vector" d="M1687.66 244.496V2.25629H1784.67V49.0686H1737.01V96.1629H1782.69V141.847H1737.01V197.402H1787.77V244.496H1687.66Z" fill="var(--fill-0, white)"/>
<path id="Vector_2" d="M1584.04 244.496V2.25629H1632.54V203.324H1682.45V244.496H1584.04Z" fill="var(--fill-0, white)"/>
<path id="Vector_3" d="M1457.55 2.25629H1523.26C1540.93 2.25629 1553.72 6.58032 1561.61 15.2284C1569.7 23.8764 1573.74 37.9765 1573.74 57.5286V68.2447C1573.74 91.3689 1565.47 105.187 1548.92 109.699C1559.07 112.331 1566.22 118.441 1570.35 128.029C1574.49 137.617 1576.56 150.307 1576.56 166.099C1576.56 191.856 1572.7 211.408 1565 224.756C1557.29 237.916 1543.38 244.496 1523.26 244.496H1457.55V2.25629ZM1514.8 93.3429C1518.94 93.3429 1521.75 91.8389 1523.26 88.8309C1524.76 85.6348 1525.52 81.2168 1525.52 75.5768V51.3246C1525.52 43.4286 1522.04 39.4805 1515.08 39.4805H1504.93V93.3429H1514.8ZM1509.72 201.914C1522.32 201.914 1528.62 195.898 1528.62 183.865V153.691C1528.62 146.359 1527.49 140.813 1525.23 137.053C1523.17 133.293 1519.4 131.413 1513.95 131.413H1504.93V201.632L1509.72 201.914Z" fill="var(--fill-0, white)"/>
<path id="Vector_4" d="M1399.87 244.496V2.25629H1446.68V244.496H1399.87Z" fill="var(--fill-0, white)"/>
<path id="Vector_5" d="M1338.13 246.752C1316.13 246.752 1300.24 241.3 1290.47 230.396C1280.69 219.491 1275.8 201.913 1275.8 177.661V153.973H1323.46V184.147C1323.46 196.179 1327.32 202.195 1335.02 202.195C1339.35 202.195 1342.36 200.973 1344.05 198.529C1345.74 195.897 1346.59 191.573 1346.59 185.557C1346.59 177.661 1345.65 171.175 1343.77 166.099C1341.89 160.835 1339.44 156.511 1336.43 153.127C1333.61 149.555 1328.44 144.103 1320.92 136.771L1300.05 115.903C1283.89 100.111 1275.8 82.6266 1275.8 63.4504C1275.8 42.7703 1280.5 27.0722 1289.9 16.3561C1299.49 5.45204 1313.4 0 1331.64 0C1353.45 0 1369.15 5.82804 1378.73 17.4841C1388.32 28.9522 1393.12 47.0003 1393.12 71.6285H1343.77L1343.48 54.9904C1343.48 51.7943 1342.54 49.2563 1340.66 47.3763C1338.97 45.4963 1336.53 44.5563 1333.33 44.5563C1329.57 44.5563 1326.75 45.5903 1324.87 47.6583C1322.99 49.7263 1322.05 52.5463 1322.05 56.1184C1322.05 64.0144 1326.56 72.1925 1335.59 80.6525L1363.79 107.725C1370.37 114.117 1375.82 120.227 1380.14 126.055C1384.47 131.695 1387.95 138.463 1390.58 146.359C1393.21 154.067 1394.53 163.279 1394.53 173.995C1394.53 197.871 1390.11 216.013 1381.27 228.422C1372.62 240.642 1358.24 246.752 1338.13 246.752Z" fill="var(--fill-0, white)"/>
<path id="Vector_6" d="M1216.6 246.752C1194.6 246.752 1178.72 241.3 1168.94 230.396C1159.17 219.491 1154.28 201.913 1154.28 177.661V153.973H1201.94V184.147C1201.94 196.179 1205.79 202.195 1213.5 202.195C1217.82 202.195 1220.83 200.973 1222.52 198.529C1224.21 195.897 1225.06 191.573 1225.06 185.557C1225.06 177.661 1224.12 171.175 1222.24 166.099C1220.36 160.835 1217.92 156.511 1214.91 153.127C1212.09 149.555 1206.92 144.103 1199.4 136.771L1178.53 115.903C1162.36 100.111 1154.28 82.6266 1154.28 63.4504C1154.28 42.7703 1158.98 27.0722 1168.38 16.3561C1177.97 5.45204 1191.88 0 1210.11 0C1231.92 0 1247.62 5.82804 1257.21 17.4841C1266.8 28.9522 1271.59 47.0003 1271.59 71.6285H1222.24L1221.96 54.9904C1221.96 51.7943 1221.02 49.2563 1219.14 47.3763C1217.45 45.4963 1215 44.5563 1211.81 44.5563C1208.05 44.5563 1205.23 45.5903 1203.35 47.6583C1201.47 49.7263 1200.53 52.5463 1200.53 56.1184C1200.53 64.0144 1205.04 72.1925 1214.06 80.6525L1242.26 107.725C1248.84 114.117 1254.29 120.227 1258.62 126.055C1262.94 131.695 1266.42 138.463 1269.05 146.359C1271.68 154.067 1273 163.279 1273 173.995C1273 197.871 1268.58 216.013 1259.75 228.422C1251.1 240.642 1236.72 246.752 1216.6 246.752Z" fill="var(--fill-0, white)"/>
<path id="Vector_7" d="M1088.2 246.752C1068.64 246.752 1053.79 240.83 1043.64 228.986C1033.49 216.953 1028.41 200.127 1028.41 178.507V63.1684C1028.41 42.3003 1033.49 26.6022 1043.64 16.0741C1053.79 5.35803 1068.64 0 1088.2 0C1107.75 0 1122.6 5.35803 1132.75 16.0741C1142.9 26.6022 1147.98 42.3003 1147.98 63.1684V178.507C1147.98 200.315 1142.9 217.141 1132.75 228.986C1122.6 240.83 1107.75 246.752 1088.2 246.752ZM1088.2 202.195C1092.52 202.195 1095.43 200.315 1096.94 196.555C1098.44 192.795 1099.19 187.531 1099.19 180.763V62.3224C1099.19 57.0584 1098.44 52.8284 1096.94 49.6323C1095.62 46.2483 1092.8 44.5563 1088.48 44.5563C1080.39 44.5563 1076.35 50.6663 1076.35 62.8864V181.045C1076.35 188.001 1077.2 193.265 1078.89 196.837C1080.58 200.409 1083.68 202.195 1088.2 202.195Z" fill="var(--fill-0, white)"/>
<path id="Vector_8" d="M905.832 2.25629H969.847C989.211 2.25629 1003.03 8.55433 1011.3 21.1504C1019.57 33.5585 1023.71 51.7946 1023.71 75.8588C1023.71 99.9229 1020.04 118.065 1012.71 130.285C1005.38 142.505 992.219 148.615 973.231 148.615H953.491V244.496H905.832V2.25629ZM956.311 104.905C962.139 104.905 966.369 103.871 969.001 101.803C971.821 99.5469 973.607 96.4449 974.359 92.4969C975.299 88.3609 975.769 82.5328 975.769 75.0128C975.769 64.8607 974.641 57.5287 972.385 53.0166C970.129 48.5046 965.617 46.2486 958.849 46.2486H953.491V104.905H956.311Z" fill="var(--fill-0, white)"/>
<path id="Vector_9" d="M740.442 244.496V2.25629H837.451V49.0686H789.792V96.1629H835.477V141.847H789.792V197.402H840.553V244.496H740.442Z" fill="var(--fill-0, white)"/>
<path id="Vector_10" d="M615.888 2.25629H679.902C699.266 2.25629 713.084 8.55433 721.356 21.1504C729.628 33.5585 733.764 51.7946 733.764 75.8588C733.764 99.9229 730.098 118.065 722.766 130.285C715.434 142.505 702.274 148.615 683.286 148.615H663.546V244.496H615.888V2.25629ZM666.366 104.905C672.194 104.905 676.424 103.871 679.056 101.803C681.876 99.5469 683.662 96.4449 684.414 92.4969C685.354 88.3609 685.824 82.5328 685.824 75.0128C685.824 64.8607 684.696 57.5287 682.44 53.0166C680.184 48.5046 675.672 46.2486 668.904 46.2486H663.546V104.905H666.366Z" fill="var(--fill-0, white)"/>
<path id="Vector_11" d="M480.992 244.496L504.398 2.25629H586.461L609.585 244.496H563.619L560.234 205.298H530.906L528.086 244.496H480.992ZM534.572 166.663H556.568L545.852 43.4286H543.596L534.572 166.663Z" fill="var(--fill-0, white)"/>
<path id="Vector_12" d="M355.212 244.496V2.25629H403.434V88.8309H426.276V2.25629H474.499V244.496H426.276V134.515H403.434V244.496H355.212Z" fill="var(--fill-0, white)"/>
<path id="Vector_13" d="M291.216 246.752C269.219 246.752 253.333 241.3 243.557 230.396C233.781 219.491 228.893 201.913 228.893 177.661V153.973H276.552V184.147C276.552 196.179 280.406 202.195 288.114 202.195C292.438 202.195 295.446 200.973 297.138 198.529C298.83 195.897 299.676 191.573 299.676 185.557C299.676 177.661 298.736 171.175 296.856 166.099C294.976 160.835 292.532 156.511 289.524 153.127C286.704 149.555 281.534 144.103 274.014 136.771L253.145 115.903C236.977 100.111 228.893 82.6266 228.893 63.4504C228.893 42.7703 233.593 27.0722 242.993 16.3561C252.581 5.45204 266.493 0 284.73 0C306.538 0 322.236 5.82804 331.824 17.4841C341.412 28.9522 346.206 47.0003 346.206 71.6285H296.856L296.574 54.9904C296.574 51.7943 295.634 49.2563 293.754 47.3763C292.062 45.4963 289.618 44.5563 286.422 44.5563C282.662 44.5563 279.842 45.5903 277.962 47.6583C276.082 49.7263 275.142 52.5463 275.142 56.1184C275.142 64.0144 279.654 72.1925 288.678 80.6525L316.878 107.725C323.458 114.117 328.91 120.227 333.234 126.055C337.558 131.695 341.036 138.463 343.668 146.359C346.3 154.067 347.616 163.279 347.616 173.995C347.616 197.871 343.198 216.013 334.362 228.422C325.714 240.642 311.332 246.752 291.216 246.752Z" fill="var(--fill-0, white)"/>
<path id="Vector_14" d="M125.931 244.496V2.25629H222.94V49.0686H175.281V96.1629H220.966V141.847H175.281V197.402H226.042V244.496H125.931Z" fill="var(--fill-0, white)"/>
<path id="Vector_15" d="M0 2.25629H74.4485C86.2926 2.25629 95.4106 4.98231 101.803 10.4343C108.383 15.6984 112.801 23.2184 115.057 32.9945C117.313 42.5826 118.441 54.8966 118.441 69.9367C118.441 83.6608 116.655 94.3769 113.083 102.085C109.511 109.793 103.307 115.151 94.4706 118.159C101.803 119.663 107.067 123.329 110.263 129.157C113.647 134.985 115.339 142.881 115.339 152.845L114.775 244.496H67.3984V149.743C67.3984 142.975 66.0824 138.651 63.4504 136.771C60.8184 134.891 56.0244 133.951 49.0683 133.951V244.496H0V2.25629ZM60.9124 91.9329C67.6804 91.9329 71.0645 84.6008 71.0645 69.9367C71.0645 63.5447 70.7825 58.7507 70.2185 55.5546C69.6545 52.3586 68.6205 50.1966 67.1164 49.0686C65.6124 47.7526 63.4504 47.0946 60.6304 47.0946H49.3503V91.9329H60.9124Z" fill="var(--fill-0, white)"/>
</g>
</svg>
