<svg preserveAspectRatio="none" width="100%" height="100%" overflow="visible" style="display: block;" viewBox="0 0 129.17 20.03" fill="none" xmlns="http://www.w3.org/2000/svg">
<g id="Group">
<path id="Vector" d="M0 0.0100021H9.37C13.72 0.0100021 16.09 2.95 16.09 6.46C16.09 9.97 13.69 12.85 9.37 12.85H4.27V20.02H0.0100021V0L0 0.0100021ZM8.8 3.67H4.27V9.19H8.8C10.48 9.19 11.74 8.11 11.74 6.43C11.74 4.75 10.48 3.67 8.8 3.67Z" fill="var(--fill-0, white)"/>
<path id="Vector_2" d="M29.2804 16.57H20.3404L19.0804 20.02H14.4004L22.1404 0H27.4804L35.1904 20.02H30.5404L29.2804 16.57ZM21.4804 12.88H28.1104L24.8104 3.7L21.4804 12.88Z" fill="var(--fill-0, white)"/>
<path id="Vector_3" d="M44.4503 12.85H41.3303V20.02H37.0703V0H46.4403C50.6103 0 53.1603 2.73 53.1603 6.45C53.1603 10.17 50.9403 11.88 48.7803 12.39L53.2803 20.01H48.3903L44.4603 12.84L44.4503 12.85ZM45.8003 3.67H41.3303V9.19H45.8003C47.5103 9.19 48.8003 8.11 48.8003 6.43C48.8003 4.75 47.5103 3.67 45.8003 3.67Z" fill="var(--fill-0, white)"/>
<path id="Vector_4" d="M60.6996 3.75977H54.8496V0.00976562H70.8196V3.75977H64.9996V20.0298H60.7096V3.75977H60.6996Z" fill="var(--fill-0, white)"/>
<path id="Vector_5" d="M77.8196 6.57977V20.0298H73.5596V0.00976562H77.9396L87.2196 12.9798V0.00976562H91.4796V20.0298H87.3696L77.8196 6.57977Z" fill="var(--fill-0, white)"/>
<path id="Vector_6" d="M95.45 0.0100021H109.62V3.67H99.71V8.02H109.41V11.68H99.71V16.33H109.62V20.02H95.45V0V0.0100021Z" fill="var(--fill-0, white)"/>
<path id="Vector_7" d="M120.34 12.85H117.22V20.02H112.96V0H122.33C126.5 0 129.05 2.73 129.05 6.45C129.05 10.17 126.83 11.88 124.67 12.39L129.17 20.01H124.28L120.35 12.84L120.34 12.85ZM121.69 3.67H117.22V9.19H121.69C123.4 9.19 124.69 8.11 124.69 6.43C124.69 4.75 123.4 3.67 121.69 3.67Z" fill="var(--fill-0, white)"/>
</g>
</svg>
